<svg xmlns="http://www.w3.org/2000/svg" xmlns:xlink="http://www.w3.org/1999/xlink" x="0px" y="0px"
	 width="100px" height="100px" viewBox="0 0 100 100" enable-background="new 0 0 100 100" xml:space="preserve">
<path fill="#FFFFFF" d="M62.27,41.609v3.756c0,0.509-0.186,0.949-0.558,1.321c-0.373,0.372-0.813,0.558-1.321,0.558H47.244v13.147
	c0,0.509-0.186,0.948-0.558,1.321c-0.372,0.372-0.812,0.558-1.321,0.558h-3.756c-0.509,0-0.949-0.186-1.321-0.558
	c-0.371-0.373-0.558-0.813-0.558-1.321V47.244H26.583c-0.509,0-0.949-0.186-1.32-0.558c-0.373-0.372-0.558-0.812-0.558-1.321v-3.756
	c0-0.509,0.186-0.949,0.558-1.321c0.372-0.371,0.812-0.558,1.32-0.558H39.73V26.583c0-0.509,0.187-0.949,0.558-1.32
	c0.372-0.373,0.812-0.558,1.321-0.558h3.756c0.509,0,0.949,0.186,1.321,0.558c0.372,0.372,0.558,0.812,0.558,1.32V39.73h13.147
	c0.509,0,0.948,0.187,1.321,0.558C62.084,40.66,62.27,41.1,62.27,41.609z M69.782,43.487c0-7.239-2.573-13.431-7.719-18.576
	c-5.145-5.146-11.337-7.718-18.577-7.718c-7.239,0-13.431,2.573-18.576,7.718c-5.146,5.146-7.718,11.337-7.718,18.576
	c0,7.239,2.572,13.432,7.718,18.577c5.146,5.146,11.337,7.719,18.576,7.719c7.239,0,13.432-2.573,18.577-7.719
	C67.209,56.919,69.782,50.726,69.782,43.487z M99.834,92.32c0,2.074-0.733,3.846-2.201,5.313c-1.467,1.468-3.238,2.201-5.313,2.201
	c-2.112,0-3.873-0.744-5.282-2.23L66.906,77.529c-7.004,4.853-14.811,7.278-23.419,7.278c-5.595,0-10.946-1.086-16.052-3.257
	c-5.106-2.172-9.509-5.106-13.207-8.805s-6.632-8.1-8.804-13.206c-2.172-5.106-3.258-10.458-3.258-16.053
	c0-5.595,1.086-10.946,3.258-16.052c2.171-5.106,5.106-9.509,8.804-13.207s8.1-6.632,13.207-8.804
	c5.106-2.172,10.457-3.258,16.052-3.258c5.596,0,10.947,1.086,16.053,3.258c5.106,2.171,9.508,5.106,13.206,8.804
	s6.633,8.1,8.805,13.207c2.171,5.106,3.257,10.457,3.257,16.052c0,8.609-2.426,16.416-7.278,23.419l20.132,20.132
	C99.108,88.485,99.834,90.247,99.834,92.32z"/>
</svg>
